<?xml version="1.0" standalone="no"?>
<svg
      version="1.1"
      viewBox="94.45 19.53 516.93 523.02"
      xmlns="http://www.w3.org/2000/svg"
      xmlnsXlink="http://www.w3.org/1999/xlink"
    >
      <defs></defs>
      <g fill="currentColor">
        <path d="m309.21 19.531h-185.41c-16.207 0-29.348 13.137-29.348 29.348v185.19c0 16.219 13.145 29.348 29.348 29.348h185.41c16.211 0 29.355-13.137 29.355-29.348v-185.19c0-16.219-13.145-29.352-29.355-29.352zm-4.8438 188.61c0 11.664-9.457 21.125-21.125 21.125l-133.46-0.003907c-11.664 0-21.125-9.457-21.125-21.125l0.003906-133.3c0-11.664 9.457-21.125 21.125-21.125h133.46c11.664 0 21.125 9.457 21.125 21.125z" />
        <path d="m338.57 508.31c0 16.211-13.145 29.348-29.355 29.348h-185.41c-16.207 0-29.348-13.145-29.348-29.348l-0.003906-185.2c0-16.211 13.145-29.348 29.348-29.348h185.41c16.211 0 29.355 13.145 29.355 29.348z" />
        <path d="m582.03 542.54h-185.41c-16.211 0-29.344-13.145-29.344-29.344v-185.21c0-16.207 13.137-29.344 29.344-29.344h185.41c16.219 0 29.348 13.145 29.348 29.344v185.21c0.003906 16.207-13.133 29.348-29.344 29.348zm-4.8555-188.6c0-11.672-9.457-21.125-21.125-21.125l-133.45 0.003906c-11.672 0-21.129 9.4531-21.129 21.125v133.31c0 11.66 9.457 21.117 21.129 21.117h133.45c11.664 0 21.125-9.457 21.125-21.117z" />
        <path d="m611.38 53.77c0-16.211-13.137-29.348-29.348-29.348h-185.41c-16.211 0-29.344 13.145-29.344 29.348v185.2c0 16.207 13.137 29.348 29.344 29.348h185.41c16.219 0 29.348-13.148 29.348-29.348v-185.2z" />
      </g>
    </svg>